#!OML:ASF H:\ManfredObstacles\Project 1\Capture day 2\Session 1\male.ASF
:FULLY-SPECIFIED
:DEGREES
332
root 2.25828 15.9364 -20.1589 -159.344 3.60188 178.912
lowerback -0.288603 6.79222 -2.21326
upperback -1.05123 9.1385 -3.86553
thorax -0.630793 4.61855 -2.74907
lowerneck -37.641 -5.99418 -3.42958
upperneck 32.3782 -9.46398 4.72659
head 19.0595 -3.47196 0.276474
rclavicle -4.13472e-014 1.09829e-014
rhumerus -19.1425 34.7171 -84.7404
rradius 101.361
rwrist 2.79864
rhand -8.27489 -1.09162
rfingers 7.12502
rthumb 17.6443 -30.311
lclavicle -4.13472e-014 1.09829e-014
lhumerus -84.9937 -35.2564 90.6207
lradius 94.4305
lwrist -12.7477
lhand -15.2413 7.39309
lfingers 7.12502
lthumb 10.932 37.0885
rfemur 20.135 5.22696 24.2144
rtibia 7.95139e-014
rfoot 38.611 -13.1218
rtoes -29.1463
lfemur -65.5482 -3.74436 -16.9317
ltibia 74.6821
lfoot 9.89427 9.82795
ltoes 4.80613
333
root 2.27334 16.0188 -20.5715 -159.193 3.40046 178.858
lowerback -0.7986 6.88071 -2.35482
upperback -1.06327 9.2939 -4.03586
thorax -0.348723 4.7024 -2.77675
lowerneck -38.1583 -6.29182 -3.81226
upperneck 32.8346 -9.88335 5.05395
head 19.5211 -3.60626 0.367842
rclavicle -5.74363e-014 4.92986e-014
rhumerus -19.423 35.304 -84.6368
rradius 101.51
rwrist 2.34035
rhand -7.85963 -1.15871
rfingers 7.12502
rthumb 18.0439 -30.3417
lclavicle -5.74363e-014 4.92986e-014
lhumerus -85.0205 -35.6162 90.6379
lradius 95.4718
lwrist -12.871
lhand -15.2519 7.42371
lfingers 7.12502
lthumb 10.9218 37.1196
rfemur 20.7657 5.1178 24.3333
rtibia 1.90833e-014
rfoot 44.8691 -14.1735
rtoes -13.7041
lfemur -65.037 -3.91455 -16.9111
ltibia 70.5295
lfoot 9.60445 9.28141
ltoes 5.52909
334
root 2.28574 16.0842 -20.9794 -158.918 3.28624 178.909
lowerback -1.22744 7.09898 -2.44046
upperback -1.14247 9.61281 -4.16932
thorax -0.173055 4.86604 -2.80974
lowerneck -38.7887 -6.80382 -4.37323
upperneck 33.0292 -10.3835 5.28082
head 19.8735 -3.80036 0.418137
rclavicle -2.8302e-014 1.6201e-014
rhumerus -19.8775 35.6549 -84.3733
rradius 101.651
rwrist 2.11729
rhand -7.62161 -1.26226
rfingers 7.12502
rthumb 18.2729 -30.424
lclavicle -2.8302e-014 1.6201e-014
lhumerus -84.929 -36.2949 91.074
lradius 96.2094
lwrist -13.1687
lhand -15.7255 7.37433
lfingers 7.12502
lthumb 10.465 37.0939
rfemur 21.2968 5.12721 24.5395
rtibia -5.725e-014
rfoot 45.7051 -15.3758
rtoes -12.521
lfemur -64.4457 -4.00346 -16.8464
ltibia 66.3677
lfoot 9.44864 8.57695
ltoes 5.63206
335
root 2.29752 16.1304 -21.3861 -158.85 3.03929 179.123
lowerback -1.4821 7.06155 -2.52658
upperback -2.0026 9.56307 -4.19853
thorax -0.928172 4.85519 -2.83556
lowerneck -36.7741 -6.48374 -4.12009
upperneck 33.1267 -10.2587 5.20435
head 19.4377 -3.82968 0.401752
rclavicle -5.40694e-014 -3.49861e-014
rhumerus -22.7723 36.4584 -86.249
rradius 101.903
rwrist 2.03017
rhand -7.45859 -1.05933
rfingers 7.12502
rthumb 18.4297 -30.2063
lclavicle -5.40694e-014 -3.49861e-014
lhumerus -86.9025 -36.0933 92.146
lradius 97.3853
lwrist -12.9604
lhand -15.6905 7.39832
lfingers 7.12502
lthumb 10.4988 37.1161
rfemur 18.696 5.04187 25.0309
rtibia 6.62786
rfoot 42.6616 -16.364
rtoes -12.6019
lfemur -63.5221 -4.10534 -16.6491
ltibia 62.2842
lfoot 8.66983 8.21435
ltoes 2.67138
336
root 2.30257 16.1731 -21.7843 -158.845 2.80089 179.308
lowerback -1.72316 7.05406 -2.50435
upperback -2.03372 9.56575 -4.18915
thorax -0.824291 4.85726 -2.80637
lowerneck -36.8947 -6.58297 -4.18461
upperneck 33.122 -10.3759 5.24874
head 19.4796 -3.86946 0.399422
rclavicle -8.84592e-015 1.03368e-014
rhumerus -23.5667 36.9415 -86.6668
rradius 101.951
rwrist 2.14209
rhand -7.21235 -0.867298
rfingers 7.12502
rthumb 18.6666 -29.9917
lclavicle -8.84592e-015 1.03368e-014
lhumerus -86.4837 -36.2853 92.3412
lradius 98.0384
lwrist -13.7899
lhand -16.0785 7.18797
lfingers 7.12502
lthumb 10.1245 36.9244
rfemur 17.4242 4.96331 25.4584
rtibia 10.6292
rfoot 40.7024 -16.1807
rtoes -12.7403
lfemur -62.4107 -4.38484 -16.4362
ltibia 58.3175
lfoot 8.26004 8.00959
ltoes 2.47274
337
root 2.30758 16.1988 -22.1867 -158.996 2.5284 179.56
lowerback -1.92148 7.18872 -2.32661
upperback -2.04459 9.74705 -4.11781
thorax -0.703254 4.94412 -2.79777
lowerneck -36.766 -6.9644 -4.96675
upperneck 33.4398 -10.8182 5.77943
head 19.786 -4.06334 0.658141
rclavicle -7.00716e-015 2.82274e-014
rhumerus -24.913 36.722 -87.1971
rradius 102.132
rwrist 2.05659
rhand -6.79482 -0.503522
rfingers 7.12502
rthumb 19.0681 -29.5888
lclavicle -7.00716e-015 2.82274e-014
lhumerus -86.2376 -36.5726 93.1002
lradius 98.7347
lwrist -13.6105
lhand -16.2856 6.96637
lfingers 7.12502
lthumb 9.9246 36.7124
rfemur 16.4747 4.77204 25.9557
rtibia 14.3064
rfoot 38.4104 -16.2691
rtoes -12.9374
lfemur -60.988 -4.72463 -16.1669
ltibia 54.622
lfoot 7.2879 8.22492
ltoes 0.354266
